<?xml version="1.0" encoding="UTF-8" standalone="no"?>
<svg
   xmlns:dc="http://purl.org/dc/elements/1.1/"
   xmlns:cc="http://creativecommons.org/ns#"
   xmlns:rdf="http://www.w3.org/1999/02/22-rdf-syntax-ns#"
   xmlns:svg="http://www.w3.org/2000/svg"
   xmlns="http://www.w3.org/2000/svg"
   xmlns:sodipodi="http://sodipodi.sourceforge.net/DTD/sodipodi-0.dtd"
   xmlns:inkscape="http://www.inkscape.org/namespaces/inkscape"
   width="162.3887mm"
   height="130.73766mm"
   viewBox="0 0 162.3887 130.73766"
   version="1.1"
   id="svg1003"
   inkscape:version="1.0.2 (1.0.2+r75+1)"
   sodipodi:docname="dynamic_esports_logo.svg">
  <defs
     id="defs997" />
  <sodipodi:namedview
     id="base"
     pagecolor="#ffffff"
     bordercolor="#666666"
     borderopacity="1.0"
     inkscape:pageopacity="0.0"
     inkscape:pageshadow="2"
     inkscape:zoom="0.35"
     inkscape:cx="572.59057"
     inkscape:cy="302.0523"
     inkscape:document-units="mm"
     inkscape:current-layer="layer1"
     inkscape:document-rotation="0"
     showgrid="false"
     inkscape:showpageshadow="false"
     showborder="false"
     inkscape:window-width="1366"
     inkscape:window-height="704"
     inkscape:window-x="0"
     inkscape:window-y="0"
     inkscape:window-maximized="0" />
  <metadata
     id="metadata1000">
    <rdf:RDF>
      <cc:Work
         rdf:about="">
        <dc:format>image/svg+xml</dc:format>
        <dc:type
           rdf:resource="http://purl.org/dc/dcmitype/StillImage" />
        <dc:title />
      </cc:Work>
    </rdf:RDF>
  </metadata>
  <g
     inkscape:label="Layer 1"
     inkscape:groupmode="layer"
     id="layer1"
     transform="translate(45.664589,-154.61331)">
    <g
       id="g1288">
      <path
         d="m -17.1211,154.61339 q 16.09721,0 18.47584,0.61115 6.52737,0.65818 14.71427,4.65407 4.48067,2.35054 9.5145,7.19265 8.96133,9.44917 8.96133,21.48391 0,7.05159 -3.20838,13.30407 -6.30612,12.17575 -20.74382,17.58201 -6.69334,2.91465 -20.57786,2.91465 h -33.909229 l -1.77014,-0.28202 V 209.19293 H -8.27041 q 5.97423,0 9.23792,-0.89335 8.68475,-2.49153 12.72287,-7.42765 4.92321,-6.25249 4.92321,-12.17584 0,-5.97038 -4.2594,-11.75265 -2.65521,-3.33777 -5.86359,-5.07717 -5.86358,-4.08993 -16.76101,-4.08993 h -37.394179 v -13.16303 z"
         style="font-style:normal;font-variant:normal;font-weight:normal;font-stretch:normal;font-size:10.5833px;line-height:1.25;font-family:Android;-inkscape-font-specification:Android;white-space:pre;fill:#4df7a8;fill-opacity:1;stroke:none;stroke-width:9.86816"
         id="path38-1" />
      <path
         d="m 81.16331,154.61339 h 34.90493 v 13.16303 H 78.89532 q -10.06767,0 -15.26745,3.14972 -7.08056,3.14972 -10.84211,12.17583 -0.8297,3.05564 -0.8297,5.26517 0,7.66272 6.74866,14.38526 4.42535,3.61986 8.29753,4.79512 4.25939,1.64541 11.67185,1.64541 h 37.39418 V 222.3559 H 80.44424 q -13.66327,0 -20.24597,-2.82058 -14.71428,-5.4533 -21.07571,-17.86412 -3.09775,-6.20545 -3.09775,-13.21 0,-15.13751 14.10579,-25.85597 9.23792,-5.92336 16.7057,-7.00461 3.81686,-0.98723 14.32705,-0.98723 z m -6.74865,27.36025 h 41.65358 V 194.9957 H 74.41466 Z"
         style="font-style:normal;font-variant:normal;font-weight:normal;font-stretch:normal;font-size:10.5833px;line-height:1.25;font-family:Android;-inkscape-font-specification:Android;white-space:pre;fill:#4df7a8;fill-opacity:1;stroke:none;stroke-width:9.86816"
         id="path40-0" />
      <path
         d="m -44.943549,234.3316 h 9.67158 q 3.7668,0 6.6513,1.5271 2.8845,1.49317 4.479479,4.20798 1.59494,2.68089 1.59494,6.14231 0,3.46138 -1.59494,6.17623 -1.594979,2.68089 -4.479479,4.20798 -2.8845,1.49314 -6.6513,1.49314 h -9.67158 z m 9.53581,21.58288 q 3.12207,0 5.46359,-1.22167 2.34155,-1.2556 3.6311,-3.42746 1.289529,-2.20579 1.289529,-5.05636 0,-2.85058 -1.289529,-5.02244 -1.28956,-2.20578 -3.6311,-3.42746 -2.34152,-1.25563 -5.46359,-1.25563 h -7.0246 v 19.41102 z"
         style="font-style:normal;font-variant:normal;font-weight:normal;font-stretch:normal;font-size:10.5833px;line-height:1.25;font-family:Montserrat;-inkscape-font-specification:Montserrat;white-space:pre;fill:#4df7a8;fill-opacity:1;stroke:none;stroke-width:3.2065"
         id="path51-8" />
      <path
         d="m -9.78662,249.87398 v 8.21236 h -2.47728 v -8.21236 l -9.50192,-15.54238 h 2.68089 l 8.14451,13.3366 8.14448,-13.3366 h 2.5112 z"
         style="font-style:normal;font-variant:normal;font-weight:normal;font-stretch:normal;font-size:10.5833px;line-height:1.25;font-family:Montserrat;-inkscape-font-specification:Montserrat;white-space:pre;fill:#4df7a8;fill-opacity:1;stroke:none;stroke-width:3.2065"
         id="path53-5" />
      <path
         d="m 22.96088,234.3316 v 23.75474 H 20.89082 L 5.61992,238.81108 v 19.27526 H 3.1087 V 234.3316 H 5.17876 L 20.4836,253.60689 V 234.3316 Z"
         style="font-style:normal;font-variant:normal;font-weight:normal;font-stretch:normal;font-size:10.5833px;line-height:1.25;font-family:Montserrat;-inkscape-font-specification:Montserrat;white-space:pre;fill:#4df7a8;fill-opacity:1;stroke:none;stroke-width:3.2065"
         id="path55-0" />
      <path
         d="M 45.59574,251.74045 H 32.36096 l -2.85057,6.34589 h -2.61302 l 10.8593,-23.75474 h 2.47728 l 10.85931,23.75474 h -2.64695 z m -0.91625,-2.03612 -5.70114,-12.75969 -5.70114,12.75969 z"
         style="font-style:normal;font-variant:normal;font-weight:normal;font-stretch:normal;font-size:10.5833px;line-height:1.25;font-family:Montserrat;-inkscape-font-specification:Montserrat;white-space:pre;fill:#4df7a8;fill-opacity:1;stroke:none;stroke-width:3.2065"
         id="path57-6" />
      <path
         d="m 79.70073,234.3316 v 23.75474 h -2.40941 v -19.0038 l -9.33222,15.98357 h -1.18774 l -9.33222,-15.88176 v 18.90199 H 55.02973 V 234.3316 h 2.07006 l 10.31634,17.61247 10.21454,-17.61247 z"
         style="font-style:normal;font-variant:normal;font-weight:normal;font-stretch:normal;font-size:10.5833px;line-height:1.25;font-family:Montserrat;-inkscape-font-specification:Montserrat;white-space:pre;fill:#4df7a8;fill-opacity:1;stroke:none;stroke-width:3.2065"
         id="path59-4" />
      <path
         d="m 87.43798,234.3316 h 2.51122 v 23.75474 h -2.51122 z"
         style="font-style:normal;font-variant:normal;font-weight:normal;font-stretch:normal;font-size:10.5833px;line-height:1.25;font-family:Montserrat;-inkscape-font-specification:Montserrat;white-space:pre;fill:#4df7a8;fill-opacity:1;stroke:none;stroke-width:3.2065"
         id="path61-6" />
      <path
         d="m 108.00273,258.28995 q -3.52927,0 -6.37984,-1.56102 -2.81663,-1.56102 -4.44553,-4.30979 -1.59496,-2.78269 -1.59496,-6.21015 0,-3.42749 1.59496,-6.17623 1.6289,-2.7827 4.47946,-4.34375 2.85058,-1.56102 6.37985,-1.56102 2.64696,0 4.88669,0.88233 2.23973,0.8823 3.80076,2.57908 l -1.59496,1.59495 q -2.7827,-2.81662 -7.02462,-2.81662 -2.81663,0 -5.12424,1.28956 -2.3076,1.28952 -3.63108,3.52926 -1.28954,2.23974 -1.28954,5.02244 0,2.78269 1.28954,5.02243 1.32348,2.23971 3.63108,3.52927 2.30761,1.28952 5.12424,1.28952 4.27585,0 7.02462,-2.85054 l 1.59496,1.59494 q -1.56103,1.69679 -3.83469,2.61304 -2.23974,0.8823 -4.8867,0.8823 z"
         style="font-style:normal;font-variant:normal;font-weight:normal;font-stretch:normal;font-size:10.5833px;line-height:1.25;font-family:Montserrat;-inkscape-font-specification:Montserrat;white-space:pre;fill:#4df7a8;fill-opacity:1;stroke:none;stroke-width:3.2065"
         id="path63-2" />
      <path
         d="m -27.107931,282.88766 v 2.25217 h -17.419118 v -24.6331 h 16.891251 v 2.25216 h -14.287186 v 8.76234 h 12.738815 v 2.21698 h -12.738815 v 9.14945 z"
         style="font-style:normal;font-variant:normal;font-weight:normal;font-stretch:normal;font-size:10.5833px;line-height:1.25;font-family:Montserrat;-inkscape-font-specification:Montserrat;white-space:pre;fill:#4df7a8;fill-opacity:1;stroke:none;stroke-width:3.32506"
         id="path65-5" />
      <path
         d="m -14.1932,285.35097 q -2.74483,0 -5.27854,-0.87975 -2.49848,-0.87978 -3.87089,-2.32256 l 1.02048,-2.00584 q 1.33725,1.33724 3.55423,2.18177 2.21699,0.80938 4.57472,0.80938 3.30787,0 4.9618,-1.19645 1.65395,-1.23167 1.65395,-3.16712 0,-1.47799 -0.91496,-2.35773 -0.87974,-0.87975 -2.18177,-1.33721 -1.30207,-0.49268 -3.62458,-1.05571 -2.78002,-0.70381 -4.43398,-1.33724 -1.65392,-0.6686 -2.85041,-2.00584 -1.16127,-1.33721 -1.16127,-3.62459 0,-1.86506 0.98534,-3.37823 0.98531,-1.54838 3.02634,-2.46334 2.04102,-0.91493 5.06739,-0.91493 2.11139,0 4.11723,0.59825 2.04102,0.56303 3.51901,1.58353 l -0.87974,2.07623 q -1.54838,-1.02053 -3.30787,-1.51316 -1.75953,-0.52785 -3.44863,-0.52785 -3.23751,0 -4.89142,1.26684 -1.61874,1.23164 -1.61874,3.2023 0,1.47795 0.87974,2.39292 0.91492,0.87974 2.25216,1.37242 1.37242,0.45746 3.65977,1.0205 2.70966,0.66863 4.36358,1.33723 1.68913,0.63342 2.8504,1.97067 1.16128,1.30202 1.16128,3.55419 0,1.86507 -1.02053,3.41345 -0.98531,1.51316 -3.06154,2.42812 -2.07621,0.87975 -5.10255,0.87975 z"
         style="font-style:normal;font-variant:normal;font-weight:normal;font-stretch:normal;font-size:10.5833px;line-height:1.25;font-family:Montserrat;-inkscape-font-specification:Montserrat;white-space:pre;fill:#4df7a8;fill-opacity:1;stroke:none;stroke-width:3.32506"
         id="path67-8" />
      <path
         d="m 9.87684,260.50673 q 4.71548,0 7.38993,2.25216 2.67445,2.25217 2.67445,6.19346 0,3.9413 -2.67445,6.19347 -2.67445,2.21698 -7.38993,2.21698 H 3.26109 v 7.77703 H 0.65704 v -24.6331 z m -0.0704,14.56873 q 3.65977,0 5.59523,-1.58357 1.93546,-1.61877 1.93546,-4.53954 0,-2.99116 -1.93546,-4.57472 -1.93546,-1.61874 -5.59523,-1.61874 H 3.26108 v 12.31657 z"
         style="font-style:normal;font-variant:normal;font-weight:normal;font-stretch:normal;font-size:10.5833px;line-height:1.25;font-family:Montserrat;-inkscape-font-specification:Montserrat;white-space:pre;fill:#4df7a8;fill-opacity:1;stroke:none;stroke-width:3.32506"
         id="path69-6" />
      <path
         d="m 36.69167,285.35097 q -3.65978,0 -6.65093,-1.61874 -2.95598,-1.65396 -4.64511,-4.50437 -1.65393,-2.85038 -1.65393,-6.4046 0,-3.55419 1.65393,-6.4046 1.68913,-2.85038 4.64511,-4.46915 2.99115,-1.65393 6.65093,-1.65393 3.65977,0 6.58056,1.61874 2.95596,1.61874 4.64509,4.50434 1.68913,2.85041 1.68913,6.4046 0,3.55422 -1.68913,6.43982 -1.68913,2.85038 -4.64509,4.46915 -2.92079,1.61874 -6.58056,1.61874 z m 0,-2.32256 q 2.92078,0 5.27852,-1.30203 2.35774,-1.33724 3.69497,-3.65977 1.33722,-2.35776 1.33722,-5.24335 0,-2.88559 -1.33722,-5.20811 -1.33723,-2.35777 -3.69497,-3.6598 -2.35774,-1.33721 -5.27852,-1.33721 -2.92078,0 -5.31371,1.33721 -2.35774,1.30203 -3.73015,3.6598 -1.33723,2.32252 -1.33723,5.20811 0,2.88559 1.33723,5.24335 1.37241,2.32253 3.73015,3.65977 2.39294,1.30203 5.31371,1.30203 z"
         style="font-style:normal;font-variant:normal;font-weight:normal;font-stretch:normal;font-size:10.5833px;line-height:1.25;font-family:Montserrat;-inkscape-font-specification:Montserrat;white-space:pre;fill:#4df7a8;fill-opacity:1;stroke:none;stroke-width:3.32506"
         id="path71-2" />
      <path
         d="m 72.26886,285.13983 -5.63043,-7.91778 q -0.95013,0.10541 -1.97065,0.10541 h -6.61574 v 7.8122 h -2.60407 v -24.6331 h 9.21981 q 4.71549,0 7.38994,2.25216 2.67445,2.25217 2.67445,6.19347 0,2.88559 -1.47799,4.89143 -1.44279,1.97063 -4.15243,2.85041 l 6.01751,8.44563 z m -7.67146,-10.0292 q 3.65978,0 5.59524,-1.61874 1.93546,-1.61877 1.93546,-4.53954 0,-2.99116 -1.93546,-4.57472 -1.93546,-1.61874 -5.59524,-1.61874 h -6.54536 v 12.35174 z"
         style="font-style:normal;font-variant:normal;font-weight:normal;font-stretch:normal;font-size:10.5833px;line-height:1.25;font-family:Montserrat;-inkscape-font-specification:Montserrat;white-space:pre;fill:#4df7a8;fill-opacity:1;stroke:none;stroke-width:3.32506"
         id="path73-8" />
      <path
         d="M 85.32437,262.75889 H 76.6676 v -2.25216 h 19.91761 v 2.25216 h -8.65677 v 22.38094 h -2.60407 z"
         style="font-style:normal;font-variant:normal;font-weight:normal;font-stretch:normal;font-size:10.5833px;line-height:1.25;font-family:Montserrat;-inkscape-font-specification:Montserrat;white-space:pre;fill:#4df7a8;fill-opacity:1;stroke:none;stroke-width:3.32506"
         id="path75-4" />
      <path
         d="m 107.14218,285.35097 q -2.74484,0 -5.27852,-0.87975 -2.4985,-0.87978 -3.87092,-2.32256 l 1.02052,-2.00584 q 1.33722,1.33724 3.55421,2.18177 2.21697,0.80938 4.57471,0.80938 3.30787,0 4.9618,-1.19645 1.65394,-1.23167 1.65394,-3.16712 0,-1.47799 -0.91493,-2.35773 -0.87976,-0.87975 -2.1818,-1.33721 -1.30203,-0.49268 -3.62458,-1.05571 -2.78002,-0.70381 -4.43396,-1.33724 -1.65394,-0.6686 -2.8504,-2.00584 -1.16128,-1.33721 -1.16128,-3.62459 0,-1.86506 0.98533,-3.37823 0.98532,-1.54838 3.02635,-2.46334 2.04103,-0.91493 5.06738,-0.91493 2.11141,0 4.11724,0.59825 2.04103,0.56303 3.51902,1.58353 l -0.87975,2.07623 q -1.54837,-1.02053 -3.30788,-1.51316 -1.7595,-0.52785 -3.44863,-0.52785 -3.23749,0 -4.89143,1.26684 -1.61875,1.23164 -1.61875,3.2023 0,1.47795 0.87976,2.39292 0.91494,0.87974 2.25217,1.37242 1.37242,0.45746 3.65977,1.0205 2.70964,0.66863 4.36358,1.33723 1.68912,0.63342 2.8504,1.97067 1.16128,1.30202 1.16128,3.55419 0,1.86507 -1.02052,3.41345 -0.98532,1.51316 -3.06155,2.42812 -2.07621,0.87975 -5.10256,0.87975 z"
         style="font-style:normal;font-variant:normal;font-weight:normal;font-stretch:normal;font-size:10.5833px;line-height:1.25;font-family:Montserrat;-inkscape-font-specification:Montserrat;white-space:pre;fill:#4df7a8;fill-opacity:1;stroke:none;stroke-width:3.32506"
         id="path77-7" />
    </g>
  </g>
</svg>
